999
FreeCAD v0.20 29177 +233 (Git)
  0
SECTION
  2
HEADER
  9
$ACADVER
  1
AC1014
  9
$ACADMAINTVER
 70
     9
  9
$DWGCODEPAGE
  3
ANSI_1252
  9
$TEXTSTYLE
  7
STANDARD
  9
$DIMSTYLE
  2
STANDARD
  9
$DIMTXSTY
  7
STANDARD
  9
$CMLSTYLE
  2
STANDARD
  9
$LUNITS
 70
2
  9
$INSUNITS
 70
4
  9
$PEXTMAX
 10
50
 20
50
 30
50
  9
$PEXTMIN
 10
0
 20
0
 30
0
  9
$HANDSEED
  5
FFFF
  0
ENDSEC
  0
SECTION
  2
CLASSES
  0
CLASS
  1
ACDBDICTIONARYWDFLT
  2
AcDbDictionaryWithDefault
  3
ObjectDBX Classes
 90
        0
280
     0
281
     0
  0
CLASS
  1
XRECORD
  2
AcDbXrecord
  3
ObjectDBX Classes
 90
        0
280
     0
281
     0
  0
CLASS
  1
LWPOLYLINE
  2
AcDbPolyline
  3
ObjectDBX Classes
 90
        0
280
     0
281
     1
  0
ENDSEC
  0
SECTION
  2
TABLES
  0
TABLE
  2
VPORT
  5
20
330
0
100
AcDbSymbolTable
 70
     1
  0
VPORT
  5
21
330
20
100
AcDbSymbolTableRecord
100
AcDbViewportTableRecord
  2
*ACTIVE
 70
     0
  0
ENDTAB
  0
TABLE
  2
LTYPE
  5
22
330
0
100
AcDbSymbolTable
 70
     1
  0
LTYPE
  5
23
330
21
100
AcDbSymbolTableRecord
100
AcDbLinetypeTableRecord
  2
BYBLOCK
 70
     0
  3

 72
    65
 73
     0
 40
0.0
  0
LTYPE
  5
24
330
21
100
AcDbSymbolTableRecord
100
AcDbLinetypeTableRecord
  2
BYLAYER
 70
     0
  3

 72
    65
 73
     0
 40
0.0
  0
LTYPE
  5
25
330
21
100
AcDbSymbolTableRecord
100
AcDbLinetypeTableRecord
  2
CONTINUOUS
 70
     0
  3
Solid line
 72
    65
 73
     0
 40
0.0
  0
ENDTAB
  0
TABLE
  2
LAYER
  5
A0C
330
0
100
AcDbSymbolTable
 70
6
  0
LAYER
  5
A0D
330
A0C
100
AcDbSymbolTableRecord
100
AcDbLayerTableRecord
  2
0
 70
   0
 62
   7
  6
CONTINUOUS
  0
LAYER
  5
A0E
330
A0C
100
AcDbSymbolTableRecord
100
AcDbLayerTableRecord
  2
none
 70
    0
 62
    7
  6
CONTINUOUS
  0
LAYER
  5
A0F
330
A0C
100
AcDbSymbolTableRecord
100
AcDbLayerTableRecord
  2
Shape035
 70
    0
 62
    7
  6
CONTINUOUS
  0
LAYER
  5
A10
330
A0C
100
AcDbSymbolTableRecord
100
AcDbLayerTableRecord
  2
Shape034
 70
    0
 62
    7
  6
CONTINUOUS
  0
LAYER
  5
A11
330
A0C
100
AcDbSymbolTableRecord
100
AcDbLayerTableRecord
  2
Shape040
 70
    0
 62
    7
  6
CONTINUOUS
  0
LAYER
  5
A12
330
A0C
100
AcDbSymbolTableRecord
100
AcDbLayerTableRecord
  2
Shape036
 70
    0
 62
    7
  6
CONTINUOUS
  0
ENDTAB
  0
TABLE
  2
STYLE
  5
70
330
0
100
AcDbSymbolTable
 70
     2
  0
STYLE
  5
71
330
70
100
AcDbSymbolTableRecord
100
AcDbTextStyleTableRecord
  2
STANDARD
 70
     0
 40
0.0
 41
1.0
 50
0.0
 71
     0
 42
2.5
  3
arial.ttf
  4

  0
STYLE
  5
72
330
70
100
AcDbSymbolTableRecord
100
AcDbTextStyleTableRecord
  2
ANNOTATIVE
 70
     0
 40
0.0
 41
1.0
 50
0.0
 71
     0
 42
2.5
  3
arial.ttf
  4

  0
ENDTAB
  0
TABLE
  2
VIEW
  5
73
330
0
100
AcDbSymbolTable
 70
     0
  0
ENDTAB
  0
TABLE
  2
UCS
  5
74
330
0
100
AcDbSymbolTable
 70
     0
  0
ENDTAB
  0
TABLE
  2
APPID
  5
75
330
0
100
AcDbSymbolTable
 70
     2
  0
APPID
  5
76
330
75
100
AcDbSymbolTableRecord
100
AcDbRegAppTableRecord
  2
ACAD
 70
     0
  0
APPID
  5
77
330
75
100
AcDbSymbolTableRecord
100
AcDbRegAppTableRecord
  2
ACADANNOTATIVE
 70
     0
  0
ENDTAB
  0
TABLE
  2
DIMSTYLE
  5
78
330
0
100
AcDbSymbolTable
 70
     2
  0
DIMSTYLE
105
79
330
78
100
AcDbSymbolTableRecord
100
AcDbDimStyleTableRecord
  2
STANDARD
 70
     0
  3

  4

  5

  6

  7

 40
0.0
 41
2.5
 42
0.625
 43
3.75
 44
1.25
 45
0.0
 46
0.0
 47
0.0
 48
0.0
140
2.5
141
2.5
142
0.0
143
0.03937007874016
144
1.0
145
0.0
146
1.0
147
0.625
 71
     0
 72
     0
 73
     0
 74
     0
 75
     0
 76
     0
 77
     1
 78
     8
170
     0
171
     3
172
     1
173
     0
174
     0
175
     0
176
     0
177
     0
178
     0
270
     2
271
     2
272
     2
273
     2
274
     3
340
71
275
     0
280
     0
281
     0
282
     0
283
     0
284
     8
285
     0
286
     0
287
     3
288
     0
  0
ENDTAB
  0
TABLE
  2
BLOCK_RECORD
  5
A01
330
0
100
AcDbSymbolTable
  70
5
  0
BLOCK_RECORD
  5
A02
330
A01
100
AcDbSymbolTableRecord
100
AcDbBlockTableRecord
  2
*MODEL_SPACE
  0
BLOCK_RECORD
  5
A03
330
A01
100
AcDbSymbolTableRecord
100
AcDbBlockTableRecord
  2
*PAPER_SPACE
  0
ENDTAB
  0
ENDSEC
  0
SECTION
  2
BLOCKS
  0
BLOCK
  5
A04
330
A02
100
AcDbEntity
  8
0
100
AcDbBlockBegin
  2
*MODEL_SPACE
 70
   0
 10
0
 20
0
 30
0
  3
*MODEL_SPACE
  1
 
  0
ENDBLK
  5
A05
330
A02
100
AcDbEntity
  8
0
100
AcDbBlockEnd
  0
BLOCK
  5
A06
330
A03
100
AcDbEntity
 67
1
  8
0
100
AcDbBlockBegin
  2
*PAPER_SPACE
 70
   0
 10
0
 20
0
 30
0
  3
*PAPER_SPACE
  1
 
  0
ENDBLK
  5
A07
330
A03
100
AcDbEntity
 67
    1
  8
0
100
AcDbBlockEnd
  0
ENDSEC
  0
SECTION
  2
ENTITIES
  0
CIRCLE
  5
A08
330
A02
100
AcDbEntity
  8
Shape035
100
AcDbCircle
 10
-15.635
 20
10
 40
1.1
  0
CIRCLE
  5
A09
330
A02
100
AcDbEntity
  8
Shape034
100
AcDbCircle
 10
-15.635
 20
-10
 40
1.1
  0
SPLINE
  5
A0A
330
A02
100
AcDbEntity
  8
Shape040
100
AcDbSpline
210
0
220
0
230
1
 70
9
 71
3
 72
167
 73
163
 74
0
 40
0
 40
0
 40
0
 40
0
 40
0.133645
 40
0.133645
 40
0.133645
 40
0.142368
 40
0.142368
 40
0.142368
 40
0.17046
 40
0.17046
 40
0.17046
 40
0.198552
 40
0.198552
 40
0.198552
 40
0.226644
 40
0.226644
 40
0.226644
 40
0.254736
 40
0.254736
 40
0.254736
 40
0.262182
 40
0.262182
 40
0.262182
 40
0.359551
 40
0.359551
 40
0.359551
 40
0.368025
 40
0.368025
 40
0.368025
 40
0.376499
 40
0.376499
 40
0.376499
 40
0.467282
 40
0.467282
 40
0.467282
 40
0.470898
 40
0.470898
 40
0.470898
 40
0.484849
 40
0.484849
 40
0.484849
 40
0.4988
 40
0.4988
 40
0.4988
 40
0.512751
 40
0.512751
 40
0.512751
 40
0.526702
 40
0.526702
 40
0.526702
 40
0.529789
 40
0.529789
 40
0.529789
 40
0.671387
 40
0.671387
 40
0.671387
 40
0.675339
 40
0.675339
 40
0.675339
 40
0.688067
 40
0.688067
 40
0.688067
 40
0.700795
 40
0.700795
 40
0.700795
 40
0.713523
 40
0.713523
 40
0.713523
 40
0.726251
 40
0.726251
 40
0.726251
 40
0.729625
 40
0.729625
 40
0.729625
 40
0.773741
 40
0.773741
 40
0.773741
 40
0.77758
 40
0.77758
 40
0.77758
 40
0.781419
 40
0.781419
 40
0.781419
 40
0.822551
 40
0.822551
 40
0.822551
 40
0.824189
 40
0.824189
 40
0.824189
 40
0.83051
 40
0.83051
 40
0.83051
 40
0.836831
 40
0.836831
 40
0.836831
 40
0.843152
 40
0.843152
 40
0.843152
 40
0.849473
 40
0.849473
 40
0.849473
 40
0.850872
 40
0.850872
 40
0.850872
 40
0.880839
 40
0.880839
 40
0.880839
 40
0.883226
 40
0.883226
 40
0.883226
 40
0.885614
 40
0.885614
 40
0.885614
 40
0.909031
 40
0.909031
 40
0.909031
 40
0.91056
 40
0.91056
 40
0.91056
 40
0.915482
 40
0.915482
 40
0.915482
 40
0.920404
 40
0.920404
 40
0.920404
 40
0.925327
 40
0.925327
 40
0.925327
 40
0.930249
 40
0.930249
 40
0.930249
 40
0.931554
 40
0.931554
 40
0.931554
 40
0.971188
 40
0.971188
 40
0.971188
 40
0.972301
 40
0.972301
 40
0.972301
 40
0.975101
 40
0.975101
 40
0.975101
 40
0.9779
 40
0.9779
 40
0.9779
 40
0.9807
 40
0.9807
 40
0.9807
 40
0.9835
 40
0.9835
 40
0.9835
 40
0.98445
 40
0.98445
 40
0.98445
 40
0.997836
 40
0.997836
 40
0.997836
 40
0.998918
 40
0.998918
 40
0.998918
 40
1
 40
1
 40
1
 40
1
 10
-25.635
 20
9.2
 30
0
 10
-25.635
 20
7.03333
 30
0
 10
-25.635
 20
4.86667
 30
0
 10
-25.635
 20
2.7
 30
0
 10
-25.6372
 20
2.53216
 30
0
 10
-25.5028
 20
2.39785
 30
0
 10
-25.335
 20
2.4
 30
0
 10
-24.8012
 20
2.33765
 30
0
 10
-24.211
 20
2.05786
 30
0
 10
-23.818
 20
1.60398
 30
0
 10
-23.4164
 20
1.15773
 30
0
 10
-23.212
 20
0.537383
 30
0
 10
-23.2163
 20
-5.55112e-16
 30
0
 10
-23.212
 20
-0.537383
 30
0
 10
-23.4164
 20
-1.15773
 30
0
 10
-23.818
 20
-1.60398
 30
0
 10
-24.211
 20
-2.05786
 30
0
 10
-24.8012
 20
-2.33765
 30
0
 10
-25.335
 20
-2.4
 30
0
 10
-25.5028
 20
-2.39785
 30
0
 10
-25.6371
 20
-2.53216
 30
0
 10
-25.635
 20
-2.7
 30
0
 10
-25.635
 20
-4.86667
 30
0
 10
-25.635
 20
-7.03333
 30
0
 10
-25.635
 20
-9.2
 30
0
 10
-25.6354
 20
-9.42127
 30
0
 10
-25.5508
 20
-9.62629
 30
0
 10
-25.4057
 20
-9.7707
 30
0
 10
-25.2613
 20
-9.91583
 30
0
 10
-25.0563
 20
-10.0004
 30
0
 10
-24.835
 20
-10
 30
0
 10
-22.4683
 20
-10
 30
0
 10
-20.1017
 20
-10
 30
0
 10
-17.735
 20
-10
 30
0
 10
-17.6231
 20
-9.99856
 30
0
 10
-17.5336
 20
-10.0881
 30
0
 10
-17.535
 20
-10.2
 30
0
 10
-17.4936
 20
-10.6273
 30
0
 10
-17.2767
 20
-11.105
 30
0
 10
-16.9161
 20
-11.4231
 30
0
 10
-16.562
 20
-11.7484
 30
0
 10
-16.0643
 20
-11.9141
 30
0
 10
-15.635
 20
-11.9106
 30
0
 10
-15.2057
 20
-11.9141
 30
0
 10
-14.708
 20
-11.7484
 30
0
 10
-14.3539
 20
-11.4231
 30
0
 10
-13.9933
 20
-11.105
 30
0
 10
-13.7764
 20
-10.6273
 30
0
 10
-13.735
 20
-10.2
 30
0
 10
-13.7364
 20
-10.0881
 30
0
 10
-13.6469
 20
-9.99857
 30
0
 10
-13.535
 20
-10
 30
0
 10
-8.46833
 20
-10
 30
0
 10
-3.40167
 20
-10
 30
0
 10
1.665
 20
-10
 30
0
 10
1.83284
 20
-10.0022
 30
0
 10
1.96715
 20
-9.86784
 30
0
 10
1.965
 20
-9.7
 30
0
 10
2.02735
 20
-9.16623
 30
0
 10
2.30714
 20
-8.57603
 30
0
 10
2.76102
 20
-8.18303
 30
0
 10
3.20727
 20
-7.78139
 30
0
 10
3.82762
 20
-7.57696
 30
0
 10
4.365
 20
-7.58128
 30
0
 10
4.90238
 20
-7.57696
 30
0
 10
5.52273
 20
-7.78139
 30
0
 10
5.96898
 20
-8.18303
 30
0
 10
6.42286
 20
-8.57603
 30
0
 10
6.70265
 20
-9.16623
 30
0
 10
6.765
 20
-9.7
 30
0
 10
6.76285
 20
-9.86784
 30
0
 10
6.89716
 20
-10.0021
 30
0
 10
7.065
 20
-10
 30
0
 10
9.23167
 20
-10
 30
0
 10
11.3983
 20
-10
 30
0
 10
13.565
 20
-10
 30
0
 10
13.7863
 20
-10.0004
 30
0
 10
13.9913
 20
-9.91584
 30
0
 10
14.1357
 20
-9.77071
 30
0
 10
14.2808
 20
-9.62629
 30
0
 10
14.3654
 20
-9.42127
 30
0
 10
14.365
 20
-9.2
 30
0
 10
14.365
 20
-6.83333
 30
0
 10
14.365
 20
-4.46667
 30
0
 10
14.365
 20
-2.1
 30
0
 10
14.3636
 20
-1.98811
 30
0
 10
14.4531
 20
-1.89857
 30
0
 10
14.565
 20
-1.9
 30
0
 10
14.9923
 20
-1.85863
 30
0
 10
15.47
 20
-1.64169
 30
0
 10
15.7881
 20
-1.28114
 30
0
 10
16.1134
 20
-0.927027
 30
0
 10
16.2791
 20
-0.42931
 30
0
 10
16.2756
 20
-8.10463e-15
 30
0
 10
16.2791
 20
0.42931
 30
0
 10
16.1134
 20
0.927027
 30
0
 10
15.7881
 20
1.28114
 30
0
 10
15.47
 20
1.64169
 30
0
 10
14.9923
 20
1.85863
 30
0
 10
14.565
 20
1.9
 30
0
 10
14.4531
 20
1.89857
 30
0
 10
14.3636
 20
1.98811
 30
0
 10
14.365
 20
2.1
 30
0
 10
14.365
 20
4.46667
 30
0
 10
14.365
 20
6.83333
 30
0
 10
14.365
 20
9.2
 30
0
 10
14.3654
 20
9.42127
 30
0
 10
14.2808
 20
9.62629
 30
0
 10
14.1357
 20
9.7707
 30
0
 10
13.9913
 20
9.91583
 30
0
 10
13.7863
 20
10.0004
 30
0
 10
13.565
 20
10
 30
0
 10
11.3983
 20
10
 30
0
 10
9.23167
 20
10
 30
0
 10
7.065
 20
10
 30
0
 10
6.89716
 20
10.0022
 30
0
 10
6.76285
 20
9.86784
 30
0
 10
6.765
 20
9.7
 30
0
 10
6.70265
 20
9.16623
 30
0
 10
6.42286
 20
8.57603
 30
0
 10
5.96898
 20
8.18303
 30
0
 10
5.52273
 20
7.78139
 30
0
 10
4.90238
 20
7.57696
 30
0
 10
4.365
 20
7.58128
 30
0
 10
3.82762
 20
7.57696
 30
0
 10
3.20727
 20
7.78139
 30
0
 10
2.76102
 20
8.18303
 30
0
 10
2.30714
 20
8.57603
 30
0
 10
2.02735
 20
9.16623
 30
0
 10
1.965
 20
9.7
 30
0
 10
1.96715
 20
9.86784
 30
0
 10
1.83284
 20
10.0021
 30
0
 10
1.665
 20
10
 30
0
 10
-3.36833
 20
10
 30
0
 10
-8.40167
 20
10
 30
0
 10
-13.435
 20
10
 30
0
 10
-13.6028
 20
9.99785
 30
0
 10
-13.7371
 20
10.1322
 30
0
 10
-13.735
 20
10.3
 30
0
 10
-13.7972
 20
10.7146
 30
0
 10
-14.0259
 20
11.1651
 30
0
 10
-14.3832
 20
11.465
 30
0
 10
-14.7351
 20
11.7712
 30
0
 10
-15.2157
 20
11.9267
 30
0
 10
-15.635
 20
11.9235
 30
0
 10
-16.0543
 20
11.9267
 30
0
 10
-16.5349
 20
11.7712
 30
0
 10
-16.8868
 20
11.465
 30
0
 10
-17.2441
 20
11.1651
 30
0
 10
-17.4728
 20
10.7146
 30
0
 10
-17.535
 20
10.3
 30
0
 10
-17.5329
 20
10.1322
 30
0
 10
-17.6672
 20
9.99785
 30
0
 10
-17.835
 20
10
 30
0
 10
-20.1683
 20
10
 30
0
 10
-22.5017
 20
10
 30
0
 10
-24.835
 20
10
 30
0
 10
-25.0563
 20
10.0004
 30
0
 10
-25.2613
 20
9.91584
 30
0
 10
-25.4057
 20
9.77071
 30
0
 10
-25.5508
 20
9.62629
 30
0
 10
-25.6354
 20
9.42127
 30
0
 10
-25.635
 20
9.2
 30
0
  0
CIRCLE
  5
A0B
330
A02
100
AcDbEntity
  8
Shape036
100
AcDbCircle
 10
14.365
 20
0
 40
1.1
  0
ENDSEC
  0
SECTION
  2
OBJECTS
  0
DICTIONARY
  5
F000
330
0
100
AcDbDictionary
  3
ACAD_GROUP
350
F001
  0
DICTIONARY
  5
F001
330
F000
100
AcDbDictionary
  0
ENDSEC
  0
EOF